<?xml version="1.0" standalone="no"?>
<!DOCTYPE svg PUBLIC "-//W3C//DTD SVG 20010904//EN"
 "http://www.w3.org/TR/2001/REC-SVG-20010904/DTD/svg10.dtd">
<svg version="1.0" xmlns="http://www.w3.org/2000/svg"
 width="128.000000pt" height="128.000000pt" viewBox="0 0 128.000000 128.000000"
 preserveAspectRatio="xMidYMid meet">

<g transform="translate(0.000000,128.000000) scale(0.100000,-0.100000)"
fill="#000000" stroke="none">
<path d="M491 1204 c-67 -18 -140 -54 -205 -102 l-51 -37 80 -3 80 -3 39 46
c22 26 60 62 84 81 50 38 49 39 -27 18z"/>
<path d="M555 831 c-153 -69 -166 -274 -23 -368 35 -24 52 -28 108 -28 56 0
73 4 108 28 113 74 135 216 49 314 -40 45 -99 73 -157 73 -25 0 -63 -9 -85
-19z m77 -56 c17 -37 -3 -75 -38 -75 -31 0 -64 25 -64 48 0 50 82 71 102 27z
m40 -102 c22 -20 23 -41 1 -65 -20 -22 -41 -23 -65 -1 -22 20 -23 41 -1 65 20
22 41 23 65 1z"/>
<path d="M849 188 l-30 -38 68 0 c64 0 70 2 111 38 l44 37 -81 0 -82 0 -30
-37z"/>
</g>
</svg>
